<svg id="visual" viewBox="0 0 960 540" width="960" height="540" xmlns="http://www.w3.org/2000/svg" xmlns:xlink="http://www.w3.org/1999/xlink" version="1.1"><rect x="0" y="0" width="960" height="540" fill="#e9f6ff"></rect><path d="M0 232L17.8 224.5C35.7 217 71.3 202 106.8 202.8C142.3 203.7 177.7 220.3 213.2 220.8C248.7 221.3 284.3 205.7 320 215.5C355.7 225.3 391.3 260.7 426.8 267.2C462.3 273.7 497.7 251.3 533.2 245.2C568.7 239 604.3 249 640 256.7C675.7 264.3 711.3 269.7 746.8 278.5C782.3 287.3 817.7 299.7 853.2 288.8C888.7 278 924.3 244 942.2 227L960 210L960 541L942.2 541C924.3 541 888.7 541 853.2 541C817.7 541 782.3 541 746.8 541C711.3 541 675.7 541 640 541C604.3 541 568.7 541 533.2 541C497.7 541 462.3 541 426.8 541C391.3 541 355.7 541 320 541C284.3 541 248.7 541 213.2 541C177.7 541 142.3 541 106.8 541C71.3 541 35.7 541 17.8 541L0 541Z" fill="#00aaff"></path><path d="M0 372L17.8 359.5C35.7 347 71.3 322 106.8 316.2C142.3 310.3 177.7 323.7 213.2 336.2C248.7 348.7 284.3 360.3 320 349C355.7 337.7 391.3 303.3 426.8 285.5C462.3 267.7 497.7 266.3 533.2 264.8C568.7 263.3 604.3 261.7 640 271.3C675.7 281 711.3 302 746.8 323.2C782.3 344.3 817.7 365.7 853.2 360.8C888.7 356 924.3 325 942.2 309.5L960 294L960 541L942.2 541C924.3 541 888.7 541 853.2 541C817.7 541 782.3 541 746.8 541C711.3 541 675.7 541 640 541C604.3 541 568.7 541 533.2 541C497.7 541 462.3 541 426.8 541C391.3 541 355.7 541 320 541C284.3 541 248.7 541 213.2 541C177.7 541 142.3 541 106.8 541C71.3 541 35.7 541 17.8 541L0 541Z" fill="#1471ae"></path><path d="M0 388L17.8 379C35.7 370 71.3 352 106.8 342.5C142.3 333 177.7 332 213.2 342C248.7 352 284.3 373 320 376.8C355.7 380.7 391.3 367.3 426.8 374.5C462.3 381.7 497.7 409.3 533.2 417.2C568.7 425 604.3 413 640 395.5C675.7 378 711.3 355 746.8 361.2C782.3 367.3 817.7 402.7 853.2 417.5C888.7 432.3 924.3 426.7 942.2 423.8L960 421L960 541L942.2 541C924.3 541 888.7 541 853.2 541C817.7 541 782.3 541 746.8 541C711.3 541 675.7 541 640 541C604.3 541 568.7 541 533.2 541C497.7 541 462.3 541 426.8 541C391.3 541 355.7 541 320 541C284.3 541 248.7 541 213.2 541C177.7 541 142.3 541 106.8 541C71.3 541 35.7 541 17.8 541L0 541Z" fill="#0d3e64"></path><path d="M0 430L17.8 437.2C35.7 444.3 71.3 458.7 106.8 458.2C142.3 457.7 177.7 442.3 213.2 432C248.7 421.7 284.3 416.3 320 415.5C355.7 414.7 391.3 418.3 426.8 429.7C462.3 441 497.7 460 533.2 459.5C568.7 459 604.3 439 640 430.3C675.7 421.7 711.3 424.3 746.8 425C782.3 425.7 817.7 424.3 853.2 421.2C888.7 418 924.3 413 942.2 410.5L960 408L960 541L942.2 541C924.3 541 888.7 541 853.2 541C817.7 541 782.3 541 746.8 541C711.3 541 675.7 541 640 541C604.3 541 568.7 541 533.2 541C497.7 541 462.3 541 426.8 541C391.3 541 355.7 541 320 541C284.3 541 248.7 541 213.2 541C177.7 541 142.3 541 106.8 541C71.3 541 35.7 541 17.8 541L0 541Z" fill="#001122"></path></svg>