<svg id="visual" viewBox="0 0 960 540" width="960" height="540" xmlns="http://www.w3.org/2000/svg" xmlns:xlink="http://www.w3.org/1999/xlink" version="1.1"><path d="M0 306L17.8 313.5C35.7 321 71.3 336 106.8 335.2C142.3 334.3 177.7 317.7 213.2 317.2C248.7 316.7 284.3 332.3 320 322.5C355.7 312.7 391.3 277.3 426.8 270.8C462.3 264.3 497.7 286.7 533.2 292.8C568.7 299 604.3 289 640 281.3C675.7 273.7 711.3 268.3 746.8 259.5C782.3 250.7 817.7 238.3 853.2 249.2C888.7 260 924.3 294 942.2 311L960 328L960 0L942.2 0C924.3 0 888.7 0 853.2 0C817.7 0 782.3 0 746.8 0C711.3 0 675.7 0 640 0C604.3 0 568.7 0 533.2 0C497.7 0 462.3 0 426.8 0C391.3 0 355.7 0 320 0C284.3 0 248.7 0 213.2 0C177.7 0 142.3 0 106.8 0C71.3 0 35.7 0 17.8 0L0 0Z" fill="#001122"></path><path d="M0 166L17.8 178.5C35.7 191 71.3 216 106.8 221.8C142.3 227.7 177.7 214.3 213.2 201.8C248.7 189.3 284.3 177.7 320 189C355.7 200.3 391.3 234.7 426.8 252.5C462.3 270.3 497.7 271.7 533.2 273.2C568.7 274.7 604.3 276.3 640 266.7C675.7 257 711.3 236 746.8 214.8C782.3 193.7 817.7 172.3 853.2 177.2C888.7 182 924.3 213 942.2 228.5L960 244L960 0L942.2 0C924.3 0 888.7 0 853.2 0C817.7 0 782.3 0 746.8 0C711.3 0 675.7 0 640 0C604.3 0 568.7 0 533.2 0C497.7 0 462.3 0 426.8 0C391.3 0 355.7 0 320 0C284.3 0 248.7 0 213.2 0C177.7 0 142.3 0 106.8 0C71.3 0 35.7 0 17.8 0L0 0Z" fill="#101732"></path><path d="M0 150L17.8 159C35.7 168 71.3 186 106.8 195.5C142.3 205 177.7 206 213.2 196C248.7 186 284.3 165 320 161.2C355.7 157.3 391.3 170.7 426.8 163.5C462.3 156.3 497.7 128.7 533.2 120.8C568.7 113 604.3 125 640 142.5C675.7 160 711.3 183 746.8 176.8C782.3 170.7 817.7 135.3 853.2 120.5C888.7 105.7 924.3 111.3 942.2 114.2L960 117L960 0L942.2 0C924.3 0 888.7 0 853.2 0C817.7 0 782.3 0 746.8 0C711.3 0 675.7 0 640 0C604.3 0 568.7 0 533.2 0C497.7 0 462.3 0 426.8 0C391.3 0 355.7 0 320 0C284.3 0 248.7 0 213.2 0C177.7 0 142.3 0 106.8 0C71.3 0 35.7 0 17.8 0L0 0Z" fill="#29183d"></path><path d="M0 108L17.8 100.8C35.7 93.7 71.3 79.3 106.8 79.8C142.3 80.3 177.7 95.7 213.2 106C248.7 116.3 284.3 121.7 320 122.5C355.7 123.3 391.3 119.7 426.8 108.3C462.3 97 497.7 78 533.2 78.5C568.7 79 604.3 99 640 107.7C675.7 116.3 711.3 113.7 746.8 113C782.3 112.3 817.7 113.7 853.2 116.8C888.7 120 924.3 125 942.2 127.5L960 130L960 0L942.2 0C924.3 0 888.7 0 853.2 0C817.7 0 782.3 0 746.8 0C711.3 0 675.7 0 640 0C604.3 0 568.7 0 533.2 0C497.7 0 462.3 0 426.8 0C391.3 0 355.7 0 320 0C284.3 0 248.7 0 213.2 0C177.7 0 142.3 0 106.8 0C71.3 0 35.7 0 17.8 0L0 0Z" fill="#46133f"></path></svg>