<svg id="visual" viewBox="0 0 900 600" width="900" height="600" xmlns="http://www.w3.org/2000/svg" xmlns:xlink="http://www.w3.org/1999/xlink" version="1.1"><rect x="0" y="0" width="900" height="600" fill="#ffffff"></rect><path d="M641 0L587.3 20C533.7 40 426.3 80 429.7 120C433 160 547 200 590.8 240C634.7 280 608.3 320 545.7 360C483 400 384 440 396 480C408 520 531 560 592.5 580L654 600L0 600L0 580C0 560 0 520 0 480C0 440 0 400 0 360C0 320 0 280 0 240C0 200 0 160 0 120C0 80 0 40 0 20L0 0Z" fill="#001122" stroke-linecap="round" stroke-linejoin="miter"></path></svg>